<mxfile host="app.diagrams.net" modified="2023-10-20T15:59:30.005Z" agent="Mozilla/5.0 (X11; Ubuntu; Linux x86_64; rv:109.0) Gecko/20100101 Firefox/118.0" etag="H0Mhnwcz2fUuyO_TLP7y" version="22.0.6" type="device">
  <diagram name="Page-1" id="cHYnhvZKH91VDjOYXZK3">
    <mxGraphModel dx="794" dy="832" grid="1" gridSize="10" guides="1" tooltips="1" connect="1" arrows="1" fold="1" page="1" pageScale="1" pageWidth="850" pageHeight="1100" math="0" shadow="0">
      <root>
        <mxCell id="0" />
        <mxCell id="1" parent="0" />
        <mxCell id="CdqcNJ89uwb6u-uzHQc5-11" style="edgeStyle=orthogonalEdgeStyle;rounded=0;orthogonalLoop=1;jettySize=auto;html=1;" edge="1" parent="1" source="CdqcNJ89uwb6u-uzHQc5-1" target="CdqcNJ89uwb6u-uzHQc5-10">
          <mxGeometry relative="1" as="geometry" />
        </mxCell>
        <mxCell id="CdqcNJ89uwb6u-uzHQc5-1" value="User Service" style="rounded=1;whiteSpace=wrap;html=1;" vertex="1" parent="1">
          <mxGeometry x="80" y="210" width="120" height="60" as="geometry" />
        </mxCell>
        <mxCell id="CdqcNJ89uwb6u-uzHQc5-6" style="edgeStyle=orthogonalEdgeStyle;rounded=0;orthogonalLoop=1;jettySize=auto;html=1;exitX=1;exitY=0.5;exitDx=0;exitDy=0;" edge="1" parent="1" source="CdqcNJ89uwb6u-uzHQc5-2" target="CdqcNJ89uwb6u-uzHQc5-5">
          <mxGeometry relative="1" as="geometry" />
        </mxCell>
        <mxCell id="CdqcNJ89uwb6u-uzHQc5-2" value="Report Service" style="rounded=1;whiteSpace=wrap;html=1;" vertex="1" parent="1">
          <mxGeometry x="290" y="210" width="120" height="60" as="geometry" />
        </mxCell>
        <mxCell id="CdqcNJ89uwb6u-uzHQc5-3" value="Email Service" style="rounded=1;whiteSpace=wrap;html=1;" vertex="1" parent="1">
          <mxGeometry x="630" y="210" width="120" height="60" as="geometry" />
        </mxCell>
        <mxCell id="CdqcNJ89uwb6u-uzHQc5-4" value="" style="endArrow=classic;html=1;rounded=0;exitX=1;exitY=0.5;exitDx=0;exitDy=0;entryX=0;entryY=0.5;entryDx=0;entryDy=0;" edge="1" parent="1" source="CdqcNJ89uwb6u-uzHQc5-1" target="CdqcNJ89uwb6u-uzHQc5-2">
          <mxGeometry width="50" height="50" relative="1" as="geometry">
            <mxPoint x="390" y="460" as="sourcePoint" />
            <mxPoint x="440" y="410" as="targetPoint" />
          </mxGeometry>
        </mxCell>
        <mxCell id="CdqcNJ89uwb6u-uzHQc5-7" style="edgeStyle=orthogonalEdgeStyle;rounded=0;orthogonalLoop=1;jettySize=auto;html=1;" edge="1" parent="1" source="CdqcNJ89uwb6u-uzHQc5-5" target="CdqcNJ89uwb6u-uzHQc5-3">
          <mxGeometry relative="1" as="geometry" />
        </mxCell>
        <mxCell id="CdqcNJ89uwb6u-uzHQc5-5" value="Kafka" style="sketch=0;outlineConnect=0;fontColor=#232F3E;gradientColor=none;strokeColor=#232F3E;fillColor=#ffffff;dashed=0;verticalLabelPosition=bottom;verticalAlign=top;align=center;html=1;fontSize=12;fontStyle=0;aspect=fixed;shape=mxgraph.aws4.resourceIcon;resIcon=mxgraph.aws4.topic;" vertex="1" parent="1">
          <mxGeometry x="480" y="210" width="60" height="60" as="geometry" />
        </mxCell>
        <mxCell id="CdqcNJ89uwb6u-uzHQc5-8" value="Mongo DB" style="shape=cylinder3;whiteSpace=wrap;html=1;boundedLbl=1;backgroundOutline=1;size=15;" vertex="1" parent="1">
          <mxGeometry x="320" y="340" width="60" height="80" as="geometry" />
        </mxCell>
        <mxCell id="CdqcNJ89uwb6u-uzHQc5-9" style="edgeStyle=orthogonalEdgeStyle;rounded=0;orthogonalLoop=1;jettySize=auto;html=1;exitX=0.5;exitY=1;exitDx=0;exitDy=0;entryX=0.5;entryY=0;entryDx=0;entryDy=0;entryPerimeter=0;" edge="1" parent="1" source="CdqcNJ89uwb6u-uzHQc5-2" target="CdqcNJ89uwb6u-uzHQc5-8">
          <mxGeometry relative="1" as="geometry" />
        </mxCell>
        <mxCell id="CdqcNJ89uwb6u-uzHQc5-10" value="Postgres" style="shape=cylinder3;whiteSpace=wrap;html=1;boundedLbl=1;backgroundOutline=1;size=15;" vertex="1" parent="1">
          <mxGeometry x="110" y="340" width="60" height="80" as="geometry" />
        </mxCell>
      </root>
    </mxGraphModel>
  </diagram>
</mxfile>
